PathFileType	3	(X/Y/Z)	E:\ViconData\BIOM9541 2025\Week 7\Mon0900\MingceV2 Cal 01.trc
DataRate	CameraRate	NumFrames	NumMarkers	Units	OrigDataRate	OrigDataStartFrame	OrigNumFrames
200.0	200.0	16	19	mm	200.0	171	273	
Frame#	Time	C7			CLAV			RBAK			LASI			RASI			LPSI			RPSI			LTHI			LKNE			LTIB			LANK			LHEE			LTOE			RTHI			RKNE			RTIB			RANK			RHEE			RTOE			
		X1	Y1	Z1	X2	Y2	Z2	X3	Y3	Z3	X4	Y4	Z4	X5	Y5	Z5	X6	Y6	Z6	X7	Y7	Z7	X8	Y8	Z8	X9	Y9	Z9	X10	Y10	Z10	X11	Y11	Z11	X12	Y12	Z12	X13	Y13	Z13	X14	Y14	Z14	X15	Y15	Z15	X16	Y16	Z16	X17	Y17	Z17	X18	Y18	Z18	X19	Y19	Z19	
171	0.85	239.33916	1434.1672	-1046.9229	243.8627	1382.061	-906.67273	82.622116	1411.6549	-985.23199	336.51068	943.91193	-808.56818	108.7188	969.57935	-825.80249	268.26645	979.37909	-1023.0849	199.08136	983.73541	-1021.9314	407.87262	669.32288	-875.40668	367.21228	470.93536	-915.59399	377.5979	262.30789	-993.75946	332.57703	79.564545	-957.87085	277.50308	44.924023	-1004.8518	323.16412	43.475765	-819.58875	47.039936	704.90936	-884.72046	94.550728	473.89105	-940.39099	78.024979	367.09933	-1010.4089	125.49804	78.579826	-986.64746	187.87427	49.664307	-1017.2234	98.520409	42.947308	-849.2829
172	0.855	239.30817	1434.1686	-1046.9287	243.86786	1382.0233	-906.65442	82.622269	1411.6268	-985.20435	336.51468	943.89398	-808.59631	108.75896	969.54395	-825.82159	268.2496	979.38849	-1023.1626	199.06209	983.7652	-1021.9946	407.90723	669.32361	-875.37384	367.17313	470.84372	-915.62555	377.59894	262.2699	-993.77692	332.53592	79.523865	-957.85492	277.45517	44.983269	-1004.8996	323.16446	43.397816	-819.66254	47.228016	704.72876	-884.82227	94.559387	473.92386	-940.41882	78.088783	367.15274	-1009.9361	125.4845	78.610764	-986.63892	187.88574	49.711979	-1017.2738	98.529442	42.935169	-849.28015
173	0.86	239.29489	1434.1406	-1046.9132	243.88095	1381.9784	-906.64917	82.603279	1411.6177	-985.16693	336.5275	943.88464	-808.62689	108.78223	969.53094	-825.8432	268.25626	979.37677	-1023.2242	199.05833	983.75171	-1022.0306	407.90262	669.31024	-875.40552	367.18558	470.81409	-915.62195	377.59045	262.24808	-993.78186	332.52405	79.472603	-957.84808	277.4552	45.016392	-1004.913	323.15558	43.379704	-819.63861	47.231102	704.70764	-884.83795	94.562836	473.89835	-940.39771	78.079826	367.1449	-1009.9161	125.53598	78.572235	-986.62463	187.88557	49.690243	-1017.2616	98.528709	42.92186	-849.23303
174	0.865	239.29272	1434.111	-1046.8894	243.87355	1381.9894	-906.63715	82.580666	1411.5948	-985.14606	336.53937	943.8905	-808.66559	108.77721	969.53851	-825.8653	268.2569	979.33026	-1023.27	199.05133	983.69495	-1022.0587	407.88333	669.3255	-875.47571	367.18948	470.85181	-915.65515	377.57596	262.22055	-993.85156	332.50095	79.417969	-957.93134	277.50119	44.925236	-1004.9026	323.13217	43.40633	-819.61847	47.233818	704.6983	-884.82269	94.596901	473.84439	-940.37732	78.068222	367.13174	-1009.9189	125.54117	78.54026	-986.64374	187.86334	49.63398	-1017.2402	98.543922	42.90572	-849.22815
175	0.87	239.21567	1434.0104	-1046.89	243.85703	1382.0312	-906.61365	82.568573	1411.6057	-985.1087	336.54663	943.93591	-808.71429	108.76217	969.57874	-825.88519	268.25156	979.29657	-1023.2969	199.03189	983.65289	-1022.0779	407.87112	669.34473	-875.578	367.22159	470.95151	-915.69232	377.55414	262.26355	-993.86224	332.51111	79.439117	-958.005	277.48099	44.909496	-1004.9359	323.12152	43.487221	-819.53448	47.248096	704.67169	-884.78876	94.603363	473.78787	-940.32251	78.045006	367.05164	-1009.8823	125.52348	78.51918	-986.64246	187.85005	49.611183	-1017.2496	98.533371	42.910118	-849.28265
176	0.875	239.19434	1434.0334	-1046.8665	243.82997	1382.0464	-906.60101	82.545876	1411.6136	-985.07837	336.53937	943.94	-808.76642	108.76353	969.59705	-825.90442	268.24667	979.31146	-1023.311	199.0222	983.67841	-1022.1068	407.8779	669.35541	-875.65411	367.23337	470.97791	-915.71838	377.54529	262.2981	-993.85522	332.50427	79.497803	-957.94788	277.45175	44.936443	-1004.9505	323.12711	43.480274	-819.54724	47.070957	704.84967	-884.69727	94.583038	473.82263	-940.29358	77.937195	367.03882	-1010.3519	125.51619	78.523727	-986.62689	187.81354	49.630928	-1017.2211	98.524315	42.949219	-849.27142
177	0.88	239.12259	1434.0284	-1046.8529	243.82452	1381.9797	-906.63367	82.518379	1411.6125	-985.05237	336.55539	943.91156	-808.81409	108.77779	969.58649	-825.91644	268.2005	979.38037	-1023.35	199.01071	983.76239	-1022.1464	407.87366	669.35199	-875.66669	367.20633	470.86395	-915.78387	377.56091	262.32211	-993.81506	332.53622	79.585381	-957.82031	277.42505	45.068592	-1005.0049	323.1174	43.454945	-819.58209	47.046295	704.90991	-884.70441	94.551949	473.91052	-940.28717	78.015869	367.11154	-1009.8382	125.4961	78.598915	-986.60504	187.81665	49.715015	-1017.2231	98.517227	42.963768	-849.21765
178	0.885	239.08102	1434.1035	-1046.833	243.83815	1381.9094	-906.67633	82.487793	1411.5884	-985.0379	336.58514	943.88159	-808.85992	108.80863	969.54126	-825.94092	268.17963	979.42218	-1023.3983	198.98421	983.81641	-1022.177	407.91516	669.32257	-875.63458	367.1814	470.71487	-915.82281	377.55508	262.30685	-993.78815	332.56442	79.609253	-957.69269	277.38394	45.139671	-1004.958	323.13492	43.417542	-819.57812	47.198326	704.74353	-884.80865	94.509903	473.96497	-940.29144	77.970787	367.19098	-1009.8225	125.48079	78.656494	-986.60126	187.8028	49.788395	-1017.2033	98.501877	42.947426	-849.15228
179	0.89	239.08606	1434.1748	-1046.8309	243.82907	1381.8892	-906.72278	82.482445	1411.5858	-985.01636	336.62549	943.8786	-808.92816	108.84512	969.53198	-825.97638	268.18564	979.45129	-1023.4432	198.99568	983.83893	-1022.2128	407.93698	669.31531	-875.6756	367.20282	470.71103	-915.84027	377.58276	262.31601	-993.78674	332.54678	79.537949	-957.76208	277.41104	45.094784	-1004.8866	323.15747	43.386169	-819.62701	47.22176	704.74457	-884.84839	93.937622	474.02011	-940.59998	77.968231	367.1871	-1009.8881	125.48925	78.658379	-986.60815	187.8118	49.761589	-1017.1875	98.533806	42.934185	-849.15942
180	0.895	239.15352	1434.3047	-1046.8314	243.82793	1381.9341	-906.74329	82.493156	1411.5913	-985.01813	336.66528	943.91931	-809.00598	108.84355	969.56335	-826.03906	268.20615	979.45068	-1023.5089	199.02211	983.77856	-1022.2478	407.94965	669.32367	-875.80231	367.26279	470.85214	-915.87634	377.61713	262.33972	-993.82727	332.60873	79.596642	-957.78424	277.46405	44.993717	-1004.8726	323.17587	43.376289	-819.71906	47.218655	704.73749	-884.88605	94.518883	473.98248	-940.42065	77.992088	367.15659	-1009.9312	125.49235	78.622375	-986.62653	187.82329	49.719387	-1017.2348	98.552193	42.9562	-849.24365
181	0.9	239.16808	1434.2645	-1046.8508	243.83713	1381.995	-906.7569	82.505997	1411.5803	-985.01373	336.70694	943.98547	-809.08527	108.87131	969.61078	-826.08325	268.24805	979.35718	-1023.5684	199.04982	983.68677	-1022.2912	407.96933	669.341	-875.9256	367.30157	470.96741	-915.92383	377.58466	262.28558	-993.94714	332.60422	79.601433	-957.87244	277.51306	44.922901	-1004.8852	323.17023	43.457905	-819.68335	47.247391	704.73505	-884.93091	94.565582	473.92822	-940.46149	77.992874	367.10989	-1009.9547	125.49074	78.59922	-986.6676	187.82327	49.670818	-1017.2941	98.578964	42.972111	-849.30493
182	0.905	239.16629	1434.1923	-1046.8621	243.84921	1381.9962	-906.75031	82.508026	1411.5593	-985.00159	336.73355	944.0144	-809.11908	108.88902	969.62158	-826.09235	268.24774	979.3183	-1023.6226	199.05304	983.64032	-1022.3247	407.98514	669.3902	-875.94611	367.33475	471.01828	-915.93079	377.5802	262.26877	-993.98419	332.57947	79.615181	-957.87579	277.52106	44.887547	-1004.9183	323.16025	43.462563	-819.67993	47.268764	704.75067	-884.94104	94.591148	473.8851	-940.46753	77.987015	367.0892	-1009.9965	125.48164	78.568527	-986.67377	187.79385	49.640213	-1017.3035	98.589966	42.969929	-849.32086
183	0.91	239.12563	1434.166	-1046.8674	243.86201	1381.949	-906.73761	82.453926	1411.5111	-984.99365	336.75366	943.98566	-809.13147	108.92915	969.59033	-826.06635	268.21411	979.28894	-1023.6577	199.0049	983.66125	-1022.3615	407.98569	669.40686	-875.87585	367.27399	470.85056	-915.9986	377.58813	262.26721	-993.97681	332.10229	78.967575	-958.32825	277.4704	44.991817	-1004.9847	323.16559	43.434387	-819.6626	47.275368	704.78534	-884.95312	94.579742	473.84863	-940.44336	77.96347	367.11661	-1009.9849	125.49244	78.545952	-986.63971	187.81244	49.642921	-1017.293	98.579567	42.945866	-849.27411
184	0.915	239.06055	1434.0964	-1046.8682	243.86703	1381.8503	-906.75439	82.430122	1411.4622	-984.95178	336.77069	943.91986	-809.14099	108.97133	969.53888	-826.03809	268.17746	979.25879	-1023.6912	198.9716	983.67236	-1022.3914	407.98672	669.39636	-875.81915	367.24719	470.6925	-915.98889	377.57431	262.20416	-993.95026	332.38187	79.277519	-958.01404	277.43945	45.073849	-1005.0019	323.15723	43.429317	-819.58429	47.269779	704.79333	-884.94055	94.558411	473.86365	-940.43103	77.92408	367.15375	-1009.956	125.41898	78.619179	-986.69324	187.80057	49.678772	-1017.2773	98.558189	42.892807	-849.19611
185	0.92	238.97737	1434.0292	-1046.8695	243.85519	1381.8218	-906.77887	82.39959	1411.4448	-984.92609	336.79684	943.90985	-809.17725	108.98779	969.52582	-826.04816	268.16898	979.26385	-1023.7159	198.96117	983.67084	-1022.4061	407.99356	669.34088	-875.89783	367.24176	470.67758	-915.99402	377.56723	262.19943	-993.9624	332.35181	79.259529	-957.9859	277.38345	45.125832	-1005.0325	323.16156	43.435642	-819.54974	47.30756	704.76526	-884.90448	94.543266	473.89096	-940.40662	77.888313	367.17191	-1009.9466	125.41718	78.627441	-986.67358	187.77751	49.655327	-1017.2118	98.563103	42.8829	-849.17169
186	0.925	239.01166	1434.1954	-1046.8254	243.8214	1381.8304	-906.83575	82.390907	1411.458	-984.90674	336.81879	943.91858	-809.26959	108.98734	969.54272	-826.07953	268.15033	979.30072	-1023.7479	198.94832	983.69165	-1022.4271	407.98367	669.32538	-876.01813	367.24988	470.71967	-916.07532	377.56448	262.26047	-993.95813	332.37219	79.309143	-958.01312	277.27301	45.377689	-1005.4164	323.16357	43.4034	-819.62341	47.284744	704.76166	-884.91528	94.503616	473.91934	-940.42169	77.867836	367.1257	-1009.9438	125.37237	78.639847	-986.67511	187.72745	49.650597	-1017.1774	98.529228	42.909088	-849.19299
